<?xml version="1.0" standalone="no"?><!DOCTYPE svg PUBLIC "-//W3C//DTD SVG 1.1//EN" "http://www.w3.org/Graphics/SVG/1.1/DTD/svg11.dtd"><svg t="1538289410700" class="icon" style="" viewBox="0 0 1024 1024" version="1.1" xmlns="http://www.w3.org/2000/svg" p-id="2540" xmlns:xlink="http://www.w3.org/1999/xlink" width="200" height="200"><defs><style type="text/css"></style></defs><path d="M140.9 612.2c4.5 16.8 10.2 33.2 17 49.4 19.4 45.7 47.1 86.8 82.4 122.2 35.3 35.3 76.4 63 122.2 82.4 47.3 20 97.6 30.2 149.5 30.2s102.2-10.2 149.5-30.2c45.7-19.4 86.8-47.1 122.2-82.4s63-76.4 82.4-122.2c10.1-23.9 17.7-48.5 22.7-73.7L535.9 384.2l-395 228z m725.2-14.3c-4.6 19-10.8 37.8-18.4 55.9-4.4 10.4-9.2 20.5-14.5 30.3h-89.9c-1.6-10.6-6.5-20.9-14.6-29-9.8-9.8-22.9-15.2-36.8-15.2-13.9 0-26.9 5.4-36.8 15.2-38.2 38.2-89 59.2-143.1 59.2-54.1 0-104.9-21-143.1-59.2-9.8-9.8-22.9-15.2-36.8-15.2s-26.9 5.4-36.8 15.2c-9.8 9.8-15.2 22.9-15.2 36.8s5.4 26.9 15.2 36.8c57.9 57.9 134.8 89.7 216.6 89.7 81.8 0 158.8-31.9 216.6-89.7 7-7 11.6-15.5 13.8-24.5h79.2c-14.7 23.6-32 45.5-52 65.5-33.5 33.5-72.4 59.8-115.8 78.1-44.9 19-92.5 28.6-141.8 28.6-49.2 0-96.9-9.6-141.8-28.6-43.4-18.3-82.3-44.6-115.8-78.1-33.5-33.5-59.8-72.4-78.1-115.8-4.4-10.5-8.4-21.2-11.8-32.1l371.4-214.4 330.3 190.5zM714.5 714.5c-54.1 54.1-126 83.9-202.5 83.9s-148.4-29.8-202.5-83.9c-12.5-12.5-12.5-32.8 0-45.3s32.8-12.5 45.3 0c86.7 86.7 227.8 86.7 314.5 0 12.5-12.5 32.8-12.5 45.3 0 12.4 12.5 12.4 32.8-0.1 45.3zM661.6 157.9c-47.3-20-97.6-30.2-149.5-30.2s-102.2 10.2-149.5 30.2c-45.7 19.4-86.8 47.1-122.2 82.4-35.3 35.3-63 76.4-82.4 122.2-20 47.3-30.2 97.6-30.2 149.5 0 11.1 0.5 22.1 1.4 33.1l603-348.1c-22.1-15.4-45.7-28.5-70.6-39.1zM176.3 370.3c18.3-43.4 44.6-82.3 78.1-115.8 33.5-33.5 72.4-59.8 115.8-78.1 44.9-19 92.5-28.6 141.8-28.6 49.2 0 96.9 9.6 141.8 28.6 13.6 5.8 26.9 12.4 39.8 19.8L147.8 511.3c0.1-49 9.7-96.4 28.5-141z" fill="#FFDCCC" p-id="2541"></path><path d="M916 275.1c-9.3-15.8-26.5-25.6-44.8-25.6-9.1 0-18.1 2.4-26 7-12.1 7-20.7 18.3-24.3 31.8-3.6 13.5-1.6 27.5 5.4 39.5 8 13.6 15.2 27.9 21.4 42.6 15.2 36 24.4 73.8 27.5 112.8l-235.3-136 153.3-88.5c0.3-0.2 0.7-0.4 1-0.6l20.6-11.9c12.1-7 20.7-18.2 24.3-31.7v-0.2c0.2-0.9 0.5-1.8 0.6-2.7 0.1-0.7 0.3-1.4 0.4-2.1 0-0.2 0.1-0.5 0.1-0.6 0.1-0.7 0.2-1.5 0.3-2.3v-0.4c0.1-0.9 0.2-1.7 0.2-2.6v-0.2c0.2-4.9-0.2-9.7-1.4-14.5 0-0.2-0.1-0.4-0.2-0.6l-0.6-2.1-0.3-0.9c-0.2-0.6-0.4-1.1-0.6-1.7v-0.1c-0.1-0.3-0.2-0.7-0.4-1-0.2-0.4-0.3-0.8-0.5-1.2l-0.1-0.3c-0.2-0.4-0.3-0.8-0.5-1.3-0.1-0.3-0.2-0.5-0.4-0.8-0.4-0.9-0.9-1.8-1.3-2.6l-0.1-0.1c-0.2-0.4-0.4-0.7-0.6-1l-0.3-0.6-0.3-0.6c-0.4-0.7-0.8-1.3-1.2-1.9l-0.2-0.3c-2.8-4.2-6.2-7.9-10.1-11-39.1-34.5-83.3-62.1-131.3-81.9C640.6 58.4 588 46.7 534 44.2c-8-0.4-16.1-0.6-24-0.6-130.1 0-249.7 49.6-336.9 139.6C85.7 273.8 39.8 396 44 527.4c0.1 3.5 0.3 7 0.5 10.5-0.2 1.9-0.3 3.9-0.3 5.8v319.6c0 28.7 23.3 52 52 52s52-23.3 52-52v-56.6c36.2 44.6 80.4 82.5 130.3 111.2 70.7 40.8 151.5 62.3 233.5 62.3 5.1 0 10.2-0.1 15.3-0.2 79.1-2.5 156.8-25.3 224.6-65.9 47.3-28.3 89.5-65 124.2-107.9v57.1c0 28.7 23.3 52 52 52s52-23.3 52-52V543.7c0-2.3-0.2-4.6-0.5-6.9 0.2-4.5 0.4-8.9 0.5-13.2 2.1-87.6-20-173.5-64.1-248.5z m44.1 248c-0.1 4.9-0.3 9.8-0.6 14.7 0.4 1.9 0.6 3.9 0.6 5.9v319.6c0 17.7-14.3 32-32 32s-32-14.3-32-32V743C820 869.2 683.5 955 526.7 960c-168.9 5.4-317.7-82.7-398.6-216.5v119.8c0 17.7-14.3 32-32 32s-32-14.3-32-32V543.7c0-1.7 0.1-3.4 0.4-5.1-0.2-4-0.4-7.9-0.5-11.9-8.7-268.5 200.8-475 469.2-462.5 105.5 4.9 201.5 46.3 275.6 111.9 2.4 2 4.6 4.3 6.5 7 0 0.1 0.1 0.1 0.1 0.2 0.3 0.4 0.5 0.8 0.8 1.2 0.1 0.2 0.2 0.3 0.3 0.5 0 0.1 0.1 0.1 0.1 0.1 0.1 0.3 0.3 0.5 0.4 0.8 0.3 0.5 0.6 1.1 0.8 1.6 0.1 0.2 0.2 0.3 0.3 0.5 0.1 0.3 0.2 0.5 0.3 0.8 0.1 0.3 0.2 0.6 0.3 0.8 0.1 0.2 0.2 0.5 0.3 0.7 0.1 0.3 0.2 0.7 0.3 1 0.1 0.2 0.1 0.4 0.2 0.6 0.1 0.4 0.2 0.8 0.4 1.3 0 0.1 0.1 0.2 0.1 0.3 0.7 3 1 6 0.9 8.9v0.1c0 0.5-0.1 1.1-0.1 1.6v0.2c-0.1 0.5-0.1 1-0.2 1.5v0.3c-0.1 0.4-0.2 0.9-0.2 1.3-0.1 0.6-0.3 1.2-0.4 1.7-2.1 7.8-7.1 15-14.9 19.5l-20.6 11.9-184.6 106.7 296.3 171.1c0-2.1 0.1-4.2 0.1-6.3 0-51.9-10.2-102.2-30.2-149.5-6.6-15.5-14.1-30.5-22.6-44.9-9-15.3-3.7-34.9 11.6-43.8 15.2-8.8 34.7-3.7 43.6 11.5 40.9 69.4 63.5 150.9 61.4 237.8z" fill="#FFDCCC" p-id="2542"></path><path d="M669.2 669.2c-86.7 86.7-227.8 86.7-314.5 0-12.5-12.5-32.8-12.5-45.3 0s-12.5 32.8 0 45.3c54.1 54.1 126 83.9 202.5 83.9s148.4-29.8 202.5-83.9c12.5-12.5 12.5-32.8 0-45.3-12.4-12.4-32.7-12.4-45.2 0z" fill="#FF7BD1" p-id="2543"></path><path d="M855.2 273.8c-15.3 8.9-20.6 28.5-11.6 43.8 8.5 14.4 16 29.4 22.6 44.9 20 47.3 30.2 97.6 30.2 149.5 0 2.1 0 4.2-0.1 6.3L599.9 347.2l184.3-106.4 20.6-11.9c7.8-4.5 12.8-11.6 14.9-19.5 0.2-0.6 0.3-1.2 0.4-1.7 0.1-0.4 0.2-0.9 0.2-1.3v-0.3c0.1-0.5 0.1-1 0.2-1.5v-0.2c0.1-0.5 0.1-1.1 0.1-1.6v-0.1c0.1-3-0.1-6-0.9-8.9 0-0.1-0.1-0.2-0.1-0.3-0.1-0.4-0.2-0.9-0.4-1.3-0.1-0.2-0.1-0.4-0.2-0.6-0.1-0.3-0.2-0.7-0.3-1-0.1-0.2-0.2-0.5-0.3-0.7-0.1-0.3-0.2-0.6-0.3-0.8-0.1-0.3-0.2-0.5-0.3-0.8-0.1-0.2-0.2-0.4-0.3-0.5-0.3-0.6-0.5-1.1-0.8-1.6-0.1-0.3-0.3-0.5-0.4-0.8 0-0.1-0.1-0.1-0.1-0.1-0.1-0.2-0.2-0.3-0.3-0.5-0.2-0.4-0.5-0.8-0.8-1.2 0-0.1-0.1-0.1-0.1-0.2-1.8-2.7-4-5-6.5-7-74.1-65.6-170.1-107-275.6-111.9C264.8 51.8 55.3 258.2 64 526.7c0.1 4 0.3 8 0.5 11.9-0.3 1.7-0.4 3.3-0.4 5.1v319.6c0 17.7 14.3 32 32 32s32-14.3 32-32V743.6C209 877.4 357.8 965.4 526.7 960c156.7-5 293.3-90.9 369.4-217v120.3c0 17.7 14.3 32 32 32s32-14.3 32-32V543.7c0-2-0.2-4-0.6-5.9 0.3-4.9 0.5-9.8 0.6-14.7 2.1-86.9-20.6-168.4-61.4-237.9-8.9-15.1-28.3-20.2-43.5-11.4zM127.8 512c0-51.9 10.2-102.2 30.2-149.5 19.4-45.7 47.1-86.8 82.4-122.2 35.3-35.3 76.4-63 122.2-82.4 47.3-20 97.6-30.2 149.5-30.2s102.2 10.2 149.5 30.2c25 10.6 48.5 23.6 70.5 39L129.1 545c-0.9-10.8-1.3-21.9-1.3-33z m738.3 149.6c-19.4 45.7-47.1 86.8-82.4 122.2s-76.4 63-122.2 82.4c-47.3 20-97.6 30.2-149.5 30.2s-102.2-10.2-149.5-30.2c-45.7-19.4-86.8-47.1-122.2-82.4-35.3-35.3-63-76.4-82.4-122.2-6.8-16.1-12.5-32.6-17-49.4l395-228L888.8 588c-5 25.1-12.6 49.7-22.7 73.6z" fill="#FF7BD1" p-id="2544"></path></svg>