<?xml version="1.0" standalone="no"?><!DOCTYPE svg PUBLIC "-//W3C//DTD SVG 1.1//EN" "http://www.w3.org/Graphics/SVG/1.1/DTD/svg11.dtd"><svg t="1538963529069" class="icon" style="" viewBox="0 0 1024 1024" version="1.1" xmlns="http://www.w3.org/2000/svg" p-id="6119" xmlns:xlink="http://www.w3.org/1999/xlink" width="200" height="200"><defs><style type="text/css"></style></defs><path d="M514.616594 860.266915c-200.014406 0-362.737488-162.724105-362.737488-362.738511 0-111.74606 50.379411-215.605499 138.222061-284.947797 5.988388-4.727675 14.676257-3.705392 19.402909 2.282996 4.727675 5.988388 3.705392 14.675234-2.282996 19.402909-81.162508 64.070224-127.711683 160.024623-127.711683 263.261892 0 184.779424 150.328797 335.109244 335.108221 335.109244 184.78147 0 335.112314-150.328797 335.112314-335.109244 0-103.307877-46.587038-199.285812-127.815037-263.323291-5.991458-4.723581-7.019881-13.409404-2.296299-19.400862 4.724605-5.991458 13.412474-7.017834 19.400862-2.296299 87.917352 69.309552 138.339742 173.195597 138.339742 285.020452C877.359198 697.54281 714.633047 860.266915 514.616594 860.266915zM514.676969 443.88567c-7.629771 0-13.814634-6.184863-13.814634-13.814634L500.862335 157.74572c0-7.629771 6.184863-13.814634 13.814634-13.814634s13.814634 6.184863 13.814634 13.814634l0 272.325315C528.491603 437.700807 522.30674 443.88567 514.676969 443.88567z" p-id="6120" fill="#2c3e50"></path></svg>