<?xml version="1.0" standalone="no"?><!DOCTYPE svg PUBLIC "-//W3C//DTD SVG 1.1//EN" "http://www.w3.org/Graphics/SVG/1.1/DTD/svg11.dtd"><svg t="1538963367071" class="icon" style="" viewBox="0 0 1024 1024" version="1.1" xmlns="http://www.w3.org/2000/svg" p-id="2279" xmlns:xlink="http://www.w3.org/1999/xlink" width="200" height="200"><defs><style type="text/css"></style></defs><path d="M514.5 1021.1c-68.7 0-135.3-13.5-198-40-60.6-25.6-115-62.3-161.7-109-46.7-46.7-83.4-101.1-109-161.7-26.5-62.7-40-129.3-40-198s13.5-135.3 40-198c25.6-60.6 62.3-115 109-161.7S256 69.5 316.6 43.9c62.7-26.5 129.3-40 198-40s135.3 13.5 198 40c60.6 25.6 115 62.3 161.7 109s83.4 101.1 109 161.7c26.5 62.7 40 129.3 40 198s-13.5 135.3-40 198c-25.6 60.6-62.3 115-109 161.7-46.7 46.7-101.1 83.4-161.7 109-62.8 26.3-129.4 39.8-198.1 39.8z m0-969.2c-254 0-460.6 206.6-460.6 460.6s206.6 460.6 460.6 460.6 460.6-206.6 460.6-460.6S768.5 51.9 514.5 51.9z" p-id="2280" fill="#2c3e50"></path><path d="M515 912l-0.1-48c14.7 0 29.6-1 44.1-2.8l6 47.6c-16.5 2.1-33.3 3.2-50 3.2z m-50-3.1c-16.6-2.1-33.2-5.2-49.3-9.3l11.8-46.5c14.2 3.6 28.8 6.4 43.4 8.2l-5.9 47.6z m149.3-9.5l-12-46.5c14.2-3.7 28.3-8.2 41.9-13.7l17.7 44.6c-15.4 6.2-31.5 11.5-47.6 15.6z m-246.4-15.2c-15.5-6.1-30.8-13.3-45.4-21.3l23.1-42.1c12.9 7.1 26.3 13.4 39.9 18.8l-17.6 44.6z m339.4-21.7l-23.2-42c12.8-7.1 25.3-15.1 37.2-23.7l28.3 38.8c-13.5 9.7-27.7 18.8-42.3 26.9zM280.1 836c-13.5-9.8-26.5-20.5-38.7-31.9l32.8-35c10.7 10 22.2 19.5 34 28.1L280.1 836z m508.1-32.5l-32.9-35c10.7-10.1 20.9-20.9 30.2-32.2l37 30.6c-10.6 12.9-22.1 25.2-34.3 36.6z m-581.2-36c-10.7-12.8-20.6-26.5-29.6-40.5l40.5-25.8c7.9 12.4 16.6 24.3 26 35.6L207 767.5z m645-41.1l-40.5-25.7c7.9-12.4 15-25.4 21.3-38.7l43.4 20.4c-7.1 15.1-15.2 29.9-24.2 44z m-698.8-43.2c-7.1-15.1-13.4-30.8-18.6-46.6l45.6-14.9c4.5 13.9 10 27.7 16.3 41l-43.3 20.5z m741.5-47.5L849 620.9c4.5-13.9 8.2-28.3 10.9-42.7l47.2 8.9c-3.1 16.4-7.3 32.7-12.4 48.6z m-772.5-47.8c-3.1-16.3-5.2-33.1-6.3-49.8l47.9-3c0.9 14.7 2.8 29.4 5.5 43.8l-47.1 9z m791.1-50.6l-47.9-2.9c0.4-7.2 0.7-14.6 0.7-21.9 0-7.4-0.2-14.9-0.7-22.3l47.9-3c0.5 8.4 0.8 16.9 0.8 25.3-0.1 8.2-0.3 16.6-0.8 24.8zM163.7 491l-47.9-2.9c1-16.7 3.1-33.4 6.1-49.8l47.2 8.9c-2.7 14.4-4.5 29.1-5.4 43.8z m696.1-44.6c-2.7-14.4-6.4-28.8-11-42.7l45.6-14.8c5.2 15.9 9.3 32.2 12.5 48.6l-47.1 8.9z m-679.9-42l-45.7-14.7c5.1-15.9 11.3-31.6 18.4-46.7l43.5 20.4c-6.2 13.3-11.7 27.1-16.2 41z m652.7-41.7c-6.2-13.2-13.4-26.2-21.3-38.6l40.5-25.8c9 14.1 17.1 28.8 24.2 43.9l-43.4 20.5z m-615.2-38L176.8 299c8.9-14.1 18.8-27.7 29.4-40.6l37 30.5c-9.3 11.3-18 23.4-25.8 35.8z m568-36.3c-9.4-11.3-19.5-22.1-30.2-32.2l32.9-35c12.1 11.4 23.7 23.7 34.3 36.5l-37 30.7z m-512-31.7l-32.9-34.9c12.1-11.4 25.1-22.2 38.6-32l28.3 38.8c-11.9 8.5-23.3 18-34 28.1z m447.7-28.6c-11.9-8.6-24.4-16.6-37.3-23.7l23.2-42c14.6 8 28.8 17.1 42.3 26.9l-28.2 38.8z m-376.5-23.4l-23.2-42c14.6-8.1 29.8-15.3 45.3-21.5l17.8 44.6c-13.7 5.5-27.1 11.8-39.9 18.9z m299.3-19.1c-13.6-5.4-27.8-10-42-13.6l11.9-46.5c16.2 4.1 32.2 9.4 47.8 15.5l-17.7 44.6z m-217.6-13.5l-12-46.5c16.1-4.2 32.7-7.3 49.3-9.5l6.1 47.6c-14.6 2-29.2 4.8-43.4 8.4z m132.3-8.4c-14.5-1.8-29.3-2.7-44.1-2.7h-0.8l-0.1-48h0.9c16.7 0 33.5 1 50 3.1l-5.9 47.6z" p-id="2281" fill="#2c3e50"></path><path d="M512.4 506.2l1.9-1.9h-1.9v1.9z m196.2-37.9c14.1-9.3 15.1-17.5 15.1-29.8v-74c0-23.8-19.4-43.2-43.2-43.2H348.6c-23.8 0-43.2 19.4-43.2 43.2v74c0 12.3 1.2 22.4 15.9 30.3 10.1 4.7 33.4 18.3 33.4 43.7 0 28.8-17.1 38.3-32 43.3l-1.3 0.6c-14.4 9-16 24-16 30v73.9c0 23.8 19.4 43.2 43.2 43.2h331.8c23.8 0 43.2-19.4 43.2-43.2v-73.9c0-16-4.4-21.9-15.7-30.2-25.4-13.1-33.6-23.8-33.6-43.7 0-20 7.6-29.9 34.3-44.2z m-115.1 30.8c0 6.8-5.6 12.4-12.4 12.4h-49.3v37.2h49.3c6.8 0 12.4 5.6 12.4 12.4v12.3c0 6.8-5.6 12.4-12.4 12.4h-49.3v36.9c0 6.8-5.5 12.4-12.4 12.4H507c-6.9 0-12.4-5.5-12.4-12.4v-36.9h-49.3c-6.8 0-12.3-5.6-12.3-12.4v-12.3c0-6.8 5.5-12.4 12.3-12.4h49.3v-37.2h-49.3c-6.8 0-12.3-5.6-12.3-12.4v-12.3c0-6.8 5.5-12.4 12.3-12.4h32.4l-41-44c-4.3-4.8-4.3-12.3 0-17l7.8-8.5c4.3-4.7 12.7-4.8 17 0l51.5 55.2 51.5-55.3c4.3-4.7 12.8-4.7 17 0l7.9 8.6c4.3 4.8 4.3 12.3 0 17.1l-40.8 43.8h32.3c6.8 0 12.4 5.6 12.4 12.4v12.4z" p-id="2282" fill="#2c3e50"></path></svg>