<?xml version="1.0" standalone="no"?><!DOCTYPE svg PUBLIC "-//W3C//DTD SVG 1.1//EN" "http://www.w3.org/Graphics/SVG/1.1/DTD/svg11.dtd"><svg t="1538992758092" class="icon" style="" viewBox="0 0 1024 1024" version="1.1" xmlns="http://www.w3.org/2000/svg" p-id="5866" xmlns:xlink="http://www.w3.org/1999/xlink" width="200" height="200"><defs><style type="text/css"></style></defs><path d="M512.5 196.5c-174 0-315 141-315 315s141 315 315 315 315-141 315-315-141-315-315-315z m90 345c16.6 0 30 13.4 30 30s-13.4 30-30 30h-60v45c0 16.6-13.4 30-30 30s-30-13.4-30-30v-45h-60c-16.6 0-30-13.4-30-30s13.4-30 30-30h60v-30h-60c-16.6 0-30-13.4-30-30s13.4-30 30-30h47l-53.1-52.9c-12.1-12-12.1-31.6 0-43.6s31.8-12 43.9 0l52 51.7 52-51.7c12.1-12 31.8-12 43.9 0 12.1 12 12.1 31.6 0 43.6l-53.1 52.9h47.4c16.6 0 30 13.4 30 30s-13.4 30-30 30h-60v30h60z" fill="#FF7700" p-id="5867"></path></svg>