<?xml version="1.0" standalone="no"?><!DOCTYPE svg PUBLIC "-//W3C//DTD SVG 1.1//EN" "http://www.w3.org/Graphics/SVG/1.1/DTD/svg11.dtd"><svg t="1538289502982" class="icon" style="" viewBox="0 0 1024 1024" version="1.1" xmlns="http://www.w3.org/2000/svg" p-id="4249" xmlns:xlink="http://www.w3.org/1999/xlink" width="200" height="200"><defs><style type="text/css"></style></defs><path d="M955.352 428.704v-28.008c0-75.36-41.744-141.12-103.28-175.32a133.192 133.192 0 0 0 36.624-91.808C888.696 59.92 828.896 0 755.392 0S622.088 59.92 622.088 133.568c0 35.536 13.952 67.856 36.624 91.808-61.528 34.2-103.28 99.96-103.28 175.32v22.264H466.568v-22.264c0-75.36-41.752-141.12-103.28-175.32a133.192 133.192 0 0 0 36.624-91.808C399.912 59.92 340.112 0 266.608 0S133.304 59.92 133.304 133.568c0 35.536 13.952 67.856 36.624 91.808-61.528 34.2-103.28 99.96-103.28 175.32v28C27.864 442.496 0 479.6 0 523.136v66.784a33.36 33.36 0 0 0 33.328 33.392h33.328v367.304A33.36 33.36 0 0 0 99.984 1024h822.04a33.36 33.36 0 0 0 33.328-33.392V623.304h33.328a33.36 33.36 0 0 0 33.328-33.392v-66.784c0-43.528-27.864-80.64-66.656-94.424zM755.392 66.784c36.752 0 66.656 29.952 66.656 66.784 0 36.824-29.904 66.776-66.656 66.776-36.752 0-66.648-29.952-66.648-66.776s29.896-66.784 66.648-66.784zM622.088 400.696c0-73.648 59.8-133.568 133.304-133.568s133.312 59.92 133.312 133.568v22.264H622.08v-22.264zM266.608 66.776c36.752 0 66.656 29.96 66.656 66.792 0 36.824-29.904 66.776-66.656 66.776-36.752 0-66.648-29.952-66.648-66.776s29.896-66.784 66.648-66.784z m-133.304 333.92c0-73.648 59.8-133.568 133.304-133.568s133.312 59.92 133.312 133.568v22.264H133.304v-22.264z m755.392 556.52H133.304V623.304h755.4v333.92z m66.656-400.696H66.648v-33.392a33.4 33.4 0 0 1 33.328-33.392h822.048a33.4 33.4 0 0 1 33.328 33.392v33.392zM744.288 690.088a33.36 33.36 0 0 1 33.328 33.392v133.56a33.36 33.36 0 0 1-33.328 33.392H277.72a33.36 33.36 0 0 1-33.328-33.392V723.48a33.36 33.36 0 0 1 33.328-33.392h466.56z m-33.328 133.568v-66.784H311.04v66.784h399.92z" fill="#20A0FF" p-id="4250"></path></svg>