<?xml version="1.0" standalone="no"?><!DOCTYPE svg PUBLIC "-//W3C//DTD SVG 1.1//EN" "http://www.w3.org/Graphics/SVG/1.1/DTD/svg11.dtd"><svg t="1538964248939" class="icon" style="" viewBox="0 0 1024 1024" version="1.1" xmlns="http://www.w3.org/2000/svg" p-id="10921" xmlns:xlink="http://www.w3.org/1999/xlink" width="200" height="200"><defs><style type="text/css"></style></defs><path d="M524.8 808.96c28.16 0 51.2-23.04 51.2-51.2s-23.04-51.2-51.2-51.2-51.2 23.04-51.2 51.2 23.04 51.2 51.2 51.2z m128-716.8h-256c-56.32 0-102.4 46.08-102.4 102.4v614.4c0 56.32 46.08 102.4 102.4 102.4h256c56.32 0 102.4-46.08 102.4-102.4v-614.4c0-56.32-46.08-102.4-102.4-102.4z m51.2 716.8c0 28.16-23.04 51.2-51.2 51.2h-256c-28.16 0-51.2-23.04-51.2-51.2v-153.6h358.4v153.6z m0-204.8h-358.4v-332.8h358.4v332.8z m0-384h-358.4v-25.6c0-28.16 23.04-51.2 51.2-51.2h256c28.16 0 51.2 23.04 51.2 51.2v25.6z" p-id="10922" fill="#ffffff"></path></svg>