<?xml version="1.0" standalone="no"?><!DOCTYPE svg PUBLIC "-//W3C//DTD SVG 1.1//EN" "http://www.w3.org/Graphics/SVG/1.1/DTD/svg11.dtd"><svg t="1538986845267" class="icon" style="" viewBox="0 0 1024 1024" version="1.1" xmlns="http://www.w3.org/2000/svg" p-id="13865" xmlns:xlink="http://www.w3.org/1999/xlink" width="200" height="200"><defs><style type="text/css"></style></defs><path d="M397.258 730.127c-88.863 0-172.408-34.605-235.244-97.441s-97.44-146.38-97.44-235.243 34.605-172.408 97.441-235.244 146.38-97.441 235.244-97.441 172.407 34.605 235.243 97.441c62.836 62.836 97.442 146.38 97.442 235.244s-34.605 172.408-97.442 235.243c-62.837 62.836-146.38 97.44-235.244 97.44z m0-628.53c-79.023 0-153.316 30.774-209.195 86.652-55.877 55.878-86.651 130.172-86.651 209.195s30.774 153.317 86.651 209.193c55.878 55.878 130.172 86.652 209.195 86.652s153.317-30.773 209.194-86.652c55.878-55.876 86.652-130.17 86.652-209.193s-30.773-153.317-86.652-209.195c-55.877-55.878-130.17-86.651-209.194-86.651z m239.78 536.139c-9.144 9.145-2.501 30.617 14.84 47.959l251.838 251.838c17.341 17.34 38.813 23.985 47.96 14.839 9.145-9.146 2.502-30.618-14.84-47.96L684.999 652.575c-17.34-17.341-38.813-23.985-47.96-14.84z" p-id="13866" fill="#ffffff"></path></svg>