<?xml version="1.0" standalone="no"?><!DOCTYPE svg PUBLIC "-//W3C//DTD SVG 1.1//EN" "http://www.w3.org/Graphics/SVG/1.1/DTD/svg11.dtd"><svg t="1538564828630" class="icon" style="" viewBox="0 0 1024 1024" version="1.1" xmlns="http://www.w3.org/2000/svg" p-id="10011" xmlns:xlink="http://www.w3.org/1999/xlink" width="200" height="200"><defs><style type="text/css"></style></defs><path d="M348.16 143.36h204.8v737.28H348.16z" fill="#707070" p-id="10012"></path><path d="M143.36 143.36h204.8v737.28H143.36z" fill="#707070" p-id="10013"></path><path d="M194.56 735.232V143.36h-51.2v737.28h204.8v-61.44h-69.632c-46.08 0-83.968-37.888-83.968-83.968z" fill="#707070" p-id="10014"></path><path d="M399.36 735.232V143.36h-51.2v737.28h204.8v-61.44h-69.632c-46.08 0-83.968-37.888-83.968-83.968z" fill="#707070" p-id="10015"></path><path d="M626.688 164.864l-5.12-21.504-68.608 21.504L738.304 880.64l68.608-21.504-180.224-694.272z" fill="#707070" p-id="10016"></path><path d="M880.64 859.136L695.296 143.36l-68.608 21.504 180.224 694.272 5.12 21.504z" fill="#707070" p-id="10017"></path><path d="M296.96 266.24h-61.44c-6.144 0-10.24-4.096-10.24-10.24s4.096-10.24 10.24-10.24h61.44c6.144 0 10.24 4.096 10.24 10.24s-4.096 10.24-10.24 10.24zM296.96 307.2h-61.44c-6.144 0-10.24-4.096-10.24-10.24s4.096-10.24 10.24-10.24h61.44c6.144 0 10.24 4.096 10.24 10.24s-4.096 10.24-10.24 10.24zM501.76 266.24h-61.44c-6.144 0-10.24-4.096-10.24-10.24s4.096-10.24 10.24-10.24h61.44c6.144 0 10.24 4.096 10.24 10.24s-4.096 10.24-10.24 10.24zM501.76 307.2h-61.44c-6.144 0-10.24-4.096-10.24-10.24s4.096-10.24 10.24-10.24h61.44c6.144 0 10.24 4.096 10.24 10.24s-4.096 10.24-10.24 10.24z" fill="#707070" p-id="10018"></path></svg>